<?xml version="1.0" encoding="utf-8"?>
<!-- Generator: Adobe Illustrator 25.2.1, SVG Export Plug-In . SVG Version: 6.00 Build 0)  -->
<svg version="1.1" id="Layer_1" xmlns="http://www.w3.org/2000/svg" xmlns:xlink="http://www.w3.org/1999/xlink" x="0px" y="0px"
	 viewBox="0 0 560 420" style="enable-background:new 0 0 560 420;" xml:space="preserve">
<style type="text/css">
	.st0{fill:none;stroke:#262626;stroke-width:0.6667;stroke-linecap:square;stroke-linejoin:round;stroke-miterlimit:10;}
	.st1{fill:#0072BD;stroke:#00F660;stroke-width:4;stroke-miterlimit:10;}
	.st2{fill:#00F660;stroke:#00F660;stroke-width:4;stroke-miterlimit:10;}
	.st3{fill:none;stroke:#9F0000;stroke-width:6.6667;stroke-linejoin:round;}
	.st4{fill:none;stroke:#9F0000;stroke-width:6.6667;stroke-linejoin:round;stroke-dasharray:12.1335,12.1335;}
</style>
<g>
	<g>
		<line class="st0" x1="73" y1="365" x2="507" y2="365"/>
		<line class="st0" x1="73" y1="365" x2="73" y2="360.7"/>
		<line class="st0" x1="145.3" y1="365" x2="145.3" y2="360.7"/>
		<line class="st0" x1="217.7" y1="365" x2="217.7" y2="360.7"/>
		<line class="st0" x1="290" y1="365" x2="290" y2="360.7"/>
		<line class="st0" x1="362.3" y1="365" x2="362.3" y2="360.7"/>
		<line class="st0" x1="434.7" y1="365" x2="434.7" y2="360.7"/>
		<line class="st0" x1="507" y1="365" x2="507" y2="360.7"/>
	</g>
	<g>
		<line class="st0" x1="73" y1="365" x2="73" y2="31"/>
		<line class="st0" x1="73" y1="365" x2="77.3" y2="365"/>
		<line class="st0" x1="73" y1="309.3" x2="77.3" y2="309.3"/>
		<line class="st0" x1="73" y1="253.7" x2="77.3" y2="253.7"/>
		<line class="st0" x1="73" y1="198" x2="77.3" y2="198"/>
		<line class="st0" x1="73" y1="142.3" x2="77.3" y2="142.3"/>
		<line class="st0" x1="73" y1="86.7" x2="77.3" y2="86.7"/>
		<line class="st0" x1="73" y1="31" x2="77.3" y2="31"/>
	</g>
	<g transform="translate(383.744,108.7014)">
		<path class="st1" d="M0-3.7C2-3.7,3.7-2,3.7,0l0,0C3.7,2,2,3.7,0,3.7S-3.7,2-3.7,0S-2-3.7,0-3.7z M0-4.3c-2.4,0-4.3,1.9-4.3,4.3
			S-2.4,4.3,0,4.3S4.3,2.4,4.3,0l0,0C4.3-2.4,2.4-4.3,0-4.3z"/>
		<path class="st1" d="M-224.3,13.7c2,0,3.7,1.6,3.7,3.7l0,0c0,2-1.6,3.7-3.7,3.7s-3.7-1.6-3.7-3.7S-226.3,13.7-224.3,13.7z
			 M-224.3,13.1c-2.4,0-4.3,1.9-4.3,4.3s1.9,4.3,4.3,4.3s4.3-1.9,4.3-4.3l0,0C-220,15-221.9,13.1-224.3,13.1z"/>
		<path class="st1" d="M-195.4,112.3c2,0,3.7,1.6,3.7,3.7l0,0c0,2-1.6,3.7-3.7,3.7s-3.7-1.6-3.7-3.7S-197.5,112.3-195.4,112.3z
			 M-195.4,111.6c-2.4,0-4.3,1.9-4.3,4.3c0,2.4,1.9,4.3,4.3,4.3s4.3-1.9,4.3-4.3l0,0C-191.1,113.6-193.1,111.6-195.4,111.6z"/>
		<path class="st1" d="M41.1-50.1c2,0,3.7,1.6,3.7,3.7l0,0c0,2-1.6,3.7-3.7,3.7s-3.7-1.6-3.7-3.7S39.1-50.1,41.1-50.1z M41.1-50.7
			c-2.4,0-4.3,1.9-4.3,4.3s1.9,4.3,4.3,4.3s4.3-1.9,4.3-4.3l0,0C45.4-48.8,43.5-50.7,41.1-50.7z"/>
		<path class="st1" d="M-6.7,106.5c2,0,3.7,1.6,3.7,3.7l0,0c0,2-1.6,3.7-3.7,3.7s-3.7-1.6-3.7-3.7S-8.7,106.5-6.7,106.5z
			 M-6.7,105.8c-2.4,0-4.3,1.9-4.3,4.3c0,2.4,1.9,4.3,4.3,4.3s4.3-1.9,4.3-4.3l0,0C-2.3,107.8-4.3,105.8-6.7,105.8z"/>
		<path class="st2" d="M-253.6,129.7c2,0,3.7,1.6,3.7,3.7l0,0c0,2-1.6,3.7-3.7,3.7s-3.7-1.6-3.7-3.7S-255.6,129.7-253.6,129.7z
			 M-253.6,129c-2.4,0-4.3,1.9-4.3,4.3s1.9,4.3,4.3,4.3s4.3-1.9,4.3-4.3l0,0C-249.3,131-251.2,129-253.6,129z"/>
		<path class="st1" d="M35,170.3c2,0,3.7,1.6,3.7,3.7l0,0c0,2-1.6,3.7-3.7,3.7s-3.7-1.6-3.7-3.7S33,170.3,35,170.3z M35,169.6
			c-2.4,0-4.3,1.9-4.3,4.3s1.9,4.3,4.3,4.3s4.3-1.9,4.3-4.3l0,0C39.3,171.6,37.4,169.6,35,169.6z"/>
		<path class="st1" d="M44.8,48.5c2,0,3.7,1.6,3.7,3.7l0,0c0,2-1.6,3.7-3.7,3.7s-3.7-1.6-3.7-3.7S42.8,48.5,44.8,48.5z M44.8,47.9
			c-2.4,0-4.3,1.9-4.3,4.3s1.9,4.3,4.3,4.3s4.3-1.9,4.3-4.3l0,0C49.2,49.8,47.2,47.9,44.8,47.9z"/>
		<path class="st1" d="M-108,199.3c2,0,3.7,1.6,3.7,3.7l0,0c0,2-1.6,3.7-3.7,3.7s-3.7-1.6-3.7-3.7S-110,199.3-108,199.3z
			 M-108,198.6c-2.4,0-4.3,1.9-4.3,4.3s1.9,4.3,4.3,4.3c2.4,0,4.3-1.9,4.3-4.3l0,0C-103.7,200.6-105.6,198.6-108,198.6z"/>
		<path class="st1" d="M2.7,118.1c2,0,3.7,1.6,3.7,3.7l0,0c0,2-1.6,3.7-3.7,3.7s-3.7-1.6-3.7-3.7S0.7,118.1,2.7,118.1z M2.7,117.4
			c-2.4,0-4.3,1.9-4.3,4.3c0,2.4,1.9,4.3,4.3,4.3s4.3-1.9,4.3-4.3l0,0C7,119.4,5.1,117.4,2.7,117.4z"/>
		<path class="st1" d="M-203.2,112.3c2,0,3.7,1.6,3.7,3.7l0,0c0,2-1.6,3.7-3.7,3.7s-3.7-1.6-3.7-3.7S-205.2,112.3-203.2,112.3z
			 M-203.2,111.6c-2.4,0-4.3,1.9-4.3,4.3c0,2.4,1.9,4.3,4.3,4.3s4.3-1.9,4.3-4.3l0,0C-198.9,113.6-200.8,111.6-203.2,111.6z"/>
		<path class="st1" d="M-47.5,100.7c2,0,3.7,1.6,3.7,3.7l0,0c0,2-1.6,3.7-3.7,3.7s-3.7-1.6-3.7-3.7S-49.5,100.7-47.5,100.7z
			 M-47.5,100c-2.4,0-4.3,1.9-4.3,4.3c0,2.4,1.9,4.3,4.3,4.3s4.3-1.9,4.3-4.3l0,0C-43.1,102-45.1,100-47.5,100z"/>
		<path class="st2" d="M-258.2,181.9c2,0,3.7,1.6,3.7,3.7l0,0c0,2-1.6,3.7-3.7,3.7s-3.7-1.6-3.7-3.7S-260.2,181.9-258.2,181.9z
			 M-258.2,181.2c-2.4,0-4.3,1.9-4.3,4.3s1.9,4.3,4.3,4.3c2.4,0,4.3-1.9,4.3-4.3l0,0C-253.8,183.2-255.8,181.2-258.2,181.2z"/>
		<path class="st2" d="M-293.4,164.5c2,0,3.7,1.6,3.7,3.7l0,0c0,2-1.6,3.7-3.7,3.7s-3.7-1.6-3.7-3.7S-295.4,164.5-293.4,164.5z
			 M-293.4,163.8c-2.4,0-4.3,1.9-4.3,4.3s1.9,4.3,4.3,4.3s4.3-1.9,4.3-4.3l0,0C-289.1,165.8-291,163.8-293.4,163.8z"/>
		<path class="st2" d="M-245.1,158.7c2,0,3.7,1.6,3.7,3.7l0,0c0,2-1.6,3.7-3.7,3.7s-3.7-1.6-3.7-3.7S-247.2,158.7-245.1,158.7z
			 M-245.1,158c-2.4,0-4.3,1.9-4.3,4.3s1.9,4.3,4.3,4.3s4.3-1.9,4.3-4.3l0,0C-240.8,160-242.7,158-245.1,158z"/>
		<path class="st2" d="M-261.5,123.9c2,0,3.7,1.6,3.7,3.7l0,0c0,2-1.6,3.7-3.7,3.7s-3.7-1.6-3.7-3.7
			C-265.2,125.5-263.5,123.9-261.5,123.9z M-261.5,123.2c-2.4,0-4.3,1.9-4.3,4.3s1.9,4.3,4.3,4.3s4.3-1.9,4.3-4.3l0,0
			C-257.2,125.2-259.1,123.2-261.5,123.2z"/>
		<path class="st1" d="M64.2,7.9c2,0,3.7,1.6,3.7,3.7l0,0c0,2-1.6,3.7-3.7,3.7s-3.7-1.6-3.7-3.7S62.1,7.9,64.2,7.9z M64.2,7.3
			c-2.4,0-4.3,1.9-4.3,4.3s1.9,4.3,4.3,4.3c2.4,0,4.3-1.9,4.3-4.3l0,0C68.5,9.2,66.6,7.3,64.2,7.3z"/>
		<path class="st1" d="M-224.7,158.7c2,0,3.7,1.6,3.7,3.7l0,0c0,2-1.6,3.7-3.7,3.7s-3.7-1.6-3.7-3.7S-226.7,158.7-224.7,158.7z
			 M-224.7,158c-2.4,0-4.3,1.9-4.3,4.3s1.9,4.3,4.3,4.3s4.3-1.9,4.3-4.3l0,0C-220.3,160-222.3,158-224.7,158z"/>
		<path class="st2" d="M46.7,152.9c2,0,3.7,1.6,3.7,3.7l0,0c0,2-1.6,3.7-3.7,3.7s-3.7-1.6-3.7-3.7S44.6,152.9,46.7,152.9z
			 M46.7,152.2c-2.4,0-4.3,1.9-4.3,4.3s1.9,4.3,4.3,4.3s4.3-1.9,4.3-4.3l0,0C51,154.2,49,152.2,46.7,152.2z"/>
		<path class="st2" d="M-277.5,7.9c2,0,3.7,1.6,3.7,3.7l0,0c0,2-1.6,3.7-3.7,3.7s-3.7-1.6-3.7-3.7S-279.6,7.9-277.5,7.9z
			 M-277.5,7.3c-2.4,0-4.3,1.9-4.3,4.3s1.9,4.3,4.3,4.3s4.3-1.9,4.3-4.3l0,0C-273.2,9.2-275.1,7.3-277.5,7.3z"/>
		<path class="st1" d="M6.1,25.3c2,0,3.7,1.6,3.7,3.7l0,0c0,2-1.6,3.7-3.7,3.7S2.4,31,2.4,29S4.1,25.3,6.1,25.3z M6.1,24.7
			c-2.4,0-4.3,1.9-4.3,4.3s1.9,4.3,4.3,4.3s4.3-1.9,4.3-4.3l0,0C10.4,26.6,8.5,24.7,6.1,24.7z"/>
		<path class="st2" d="M51.3,100.7c2,0,3.7,1.6,3.7,3.7l0,0c0,2-1.6,3.7-3.7,3.7s-3.7-1.6-3.7-3.7S49.3,100.7,51.3,100.7z M51.3,100
			c-2.4,0-4.3,1.9-4.3,4.3c0,2.4,1.9,4.3,4.3,4.3s4.3-1.9,4.3-4.3l0,0C55.6,102,53.7,100,51.3,100z"/>
		<path class="st2" d="M-300.4-32.7c2,0,3.7,1.6,3.7,3.7l0,0c0,2-1.6,3.7-3.7,3.7s-3.7-1.6-3.7-3.7S-302.4-32.7-300.4-32.7z
			 M-300.4-33.3c-2.4,0-4.3,1.9-4.3,4.3s1.9,4.3,4.3,4.3s4.3-1.9,4.3-4.3l0,0C-296.1-31.4-298-33.3-300.4-33.3z"/>
		<path class="st1" d="M-28.8,164.5c2,0,3.7,1.6,3.7,3.7l0,0c0,2-1.6,3.7-3.7,3.7s-3.7-1.6-3.7-3.7S-30.8,164.5-28.8,164.5z
			 M-28.8,163.8c-2.4,0-4.3,1.9-4.3,4.3s1.9,4.3,4.3,4.3s4.3-1.9,4.3-4.3l0,0C-24.5,165.8-26.4,163.8-28.8,163.8z"/>
		<path class="st1" d="M-4.1,170.3c2,0,3.7,1.6,3.7,3.7l0,0c0,2-1.6,3.7-3.7,3.7s-3.7-1.6-3.7-3.7S-6.1,170.3-4.1,170.3z
			 M-4.1,169.6c-2.4,0-4.3,1.9-4.3,4.3s1.9,4.3,4.3,4.3s4.3-1.9,4.3-4.3l0,0C0.2,171.6-1.7,169.6-4.1,169.6z"/>
		<path class="st2" d="M-295.8,170.3c2,0,3.7,1.6,3.7,3.7l0,0c0,2-1.6,3.7-3.7,3.7s-3.7-1.6-3.7-3.7S-297.8,170.3-295.8,170.3z
			 M-295.8,169.6c-2.4,0-4.3,1.9-4.3,4.3s1.9,4.3,4.3,4.3s4.3-1.9,4.3-4.3l0,0C-291.4,171.6-293.4,169.6-295.8,169.6z"/>
		<path class="st1" d="M-103.9,176.1c2,0,3.7,1.6,3.7,3.7l0,0c0,2-1.6,3.7-3.7,3.7s-3.7-1.6-3.7-3.7S-105.9,176.1-103.9,176.1z
			 M-103.9,175.4c-2.4,0-4.3,1.9-4.3,4.3s1.9,4.3,4.3,4.3c2.4,0,4.3-1.9,4.3-4.3l0,0C-99.5,177.4-101.5,175.4-103.9,175.4z"/>
		<path class="st1" d="M-215.3-50.1c2,0,3.7,1.6,3.7,3.7l0,0c0,2-1.6,3.7-3.7,3.7s-3.7-1.6-3.7-3.7S-217.3-50.1-215.3-50.1z
			 M-215.3-50.7c-2.4,0-4.3,1.9-4.3,4.3s1.9,4.3,4.3,4.3s4.3-1.9,4.3-4.3l0,0C-210.9-48.8-212.9-50.7-215.3-50.7z"/>
		<path class="st1" d="M-214,135.5c2,0,3.7,1.6,3.7,3.7l0,0c0,2-1.6,3.7-3.7,3.7s-3.7-1.6-3.7-3.7S-216.1,135.5-214,135.5z
			 M-214,134.8c-2.4,0-4.3,1.9-4.3,4.3s1.9,4.3,4.3,4.3s4.3-1.9,4.3-4.3l0,0C-209.7,136.8-211.6,134.8-214,134.8z"/>
		<path class="st1" d="M-206.4,94.9c2,0,3.7,1.6,3.7,3.7l0,0c0,2-1.6,3.7-3.7,3.7s-3.7-1.6-3.7-3.7S-208.4,94.9-206.4,94.9z
			 M-206.4,94.2c-2.4,0-4.3,1.9-4.3,4.3c0,2.4,1.9,4.3,4.3,4.3s4.3-1.9,4.3-4.3l0,0C-202,96.2-204,94.2-206.4,94.2z"/>
		<path class="st1" d="M-33.9,48.5c2,0,3.7,1.6,3.7,3.7l0,0c0,2-1.6,3.7-3.7,3.7s-3.7-1.6-3.7-3.7S-35.9,48.5-33.9,48.5z
			 M-33.9,47.9c-2.4,0-4.3,1.9-4.3,4.3s1.9,4.3,4.3,4.3s4.3-1.9,4.3-4.3l0,0C-29.6,49.8-31.5,47.9-33.9,47.9z"/>
		<path class="st2" d="M-284.6,48.5c2,0,3.7,1.6,3.7,3.7l0,0c0,2-1.6,3.7-3.7,3.7s-3.7-1.6-3.7-3.7S-286.7,48.5-284.6,48.5z
			 M-284.6,47.9c-2.4,0-4.3,1.9-4.3,4.3s1.9,4.3,4.3,4.3s4.3-1.9,4.3-4.3l0,0C-280.3,49.8-282.2,47.9-284.6,47.9z"/>
		<path class="st2" d="M-260,13.7c2,0,3.7,1.6,3.7,3.7l0,0c0,2-1.6,3.7-3.7,3.7s-3.7-1.6-3.7-3.7S-262,13.7-260,13.7z M-260,13.1
			c-2.4,0-4.3,1.9-4.3,4.3s1.9,4.3,4.3,4.3s4.3-1.9,4.3-4.3l0,0C-255.6,15-257.6,13.1-260,13.1z"/>
		<path class="st1" d="M44.6-3.7c2,0,3.7,1.6,3.7,3.7l0,0c0,2-1.6,3.7-3.7,3.7S41,2,41,0S42.6-3.7,44.6-3.7z M44.6-4.3
			c-2.4,0-4.3,1.9-4.3,4.3s1.9,4.3,4.3,4.3S49,2.4,49,0l0,0C49-2.4,47-4.3,44.6-4.3z"/>
		<path class="st2" d="M-250.7,164.5c2,0,3.7,1.6,3.7,3.7l0,0c0,2-1.6,3.7-3.7,3.7s-3.7-1.6-3.7-3.7S-252.7,164.5-250.7,164.5z
			 M-250.7,163.8c-2.4,0-4.3,1.9-4.3,4.3s1.9,4.3,4.3,4.3s4.3-1.9,4.3-4.3l0,0C-246.4,165.8-248.3,163.8-250.7,163.8z"/>
		<path class="st1" d="M-213.5,7.9c2,0,3.7,1.6,3.7,3.7l0,0c0,2-1.6,3.7-3.7,3.7s-3.7-1.6-3.7-3.7S-215.6,7.9-213.5,7.9z
			 M-213.5,7.3c-2.4,0-4.3,1.9-4.3,4.3s1.9,4.3,4.3,4.3s4.3-1.9,4.3-4.3l0,0C-209.2,9.2-211.1,7.3-213.5,7.3z"/>
		<path class="st1" d="M-188.3,94.9c2,0,3.7,1.6,3.7,3.7l0,0c0,2-1.6,3.7-3.7,3.7s-3.7-1.6-3.7-3.7S-190.3,94.9-188.3,94.9z
			 M-188.3,94.2c-2.4,0-4.3,1.9-4.3,4.3c0,2.4,1.9,4.3,4.3,4.3s4.3-1.9,4.3-4.3l0,0C-184,96.2-185.9,94.2-188.3,94.2z"/>
		<path class="st1" d="M11.3-3.7C13.3-3.7,15-2,15,0l0,0c0,2-1.6,3.7-3.7,3.7S7.6,2,7.6,0S9.3-3.7,11.3-3.7z M11.3-4.3
			C8.9-4.3,7-2.4,7,0s1.9,4.3,4.3,4.3s4.3-1.9,4.3-4.3l0,0C15.6-2.4,13.7-4.3,11.3-4.3z"/>
		<path class="st1" d="M-183.9,89.1c2,0,3.7,1.6,3.7,3.7l0,0c0,2-1.6,3.7-3.7,3.7s-3.7-1.6-3.7-3.7S-186,89.1-183.9,89.1z
			 M-183.9,88.4c-2.4,0-4.3,1.9-4.3,4.3c0,2.4,1.9,4.3,4.3,4.3s4.3-1.9,4.3-4.3l0,0C-179.6,90.4-181.6,88.4-183.9,88.4z"/>
		<path class="st1" d="M-85.2,135.5c2,0,3.7,1.6,3.7,3.7l0,0c0,2-1.6,3.7-3.7,3.7s-3.7-1.6-3.7-3.7S-87.2,135.5-85.2,135.5z
			 M-85.2,134.8c-2.4,0-4.3,1.9-4.3,4.3s1.9,4.3,4.3,4.3c2.4,0,4.3-1.9,4.3-4.3l0,0C-80.9,136.8-82.8,134.8-85.2,134.8z"/>
		<path class="st1" d="M-12.5,118.1c2,0,3.7,1.6,3.7,3.7l0,0c0,2-1.6,3.7-3.7,3.7s-3.7-1.6-3.7-3.7S-14.5,118.1-12.5,118.1z
			 M-12.5,117.4c-2.4,0-4.3,1.9-4.3,4.3c0,2.4,1.9,4.3,4.3,4.3s4.3-1.9,4.3-4.3l0,0C-8.2,119.4-10.1,117.4-12.5,117.4z"/>
		<path class="st1" d="M-168.3,31.1c2,0,3.7,1.6,3.7,3.7l0,0c0,2-1.6,3.7-3.7,3.7s-3.7-1.6-3.7-3.7S-170.3,31.1-168.3,31.1z
			 M-168.3,30.5c-2.4,0-4.3,1.9-4.3,4.3s1.9,4.3,4.3,4.3s4.3-1.9,4.3-4.3l0,0C-164,32.4-165.9,30.5-168.3,30.5z"/>
		<path class="st2" d="M-261.2,147.1c2,0,3.7,1.6,3.7,3.7l0,0c0,2-1.6,3.7-3.7,3.7s-3.7-1.6-3.7-3.7S-263.2,147.1-261.2,147.1z
			 M-261.2,146.4c-2.4,0-4.3,1.9-4.3,4.3s1.9,4.3,4.3,4.3s4.3-1.9,4.3-4.3l0,0C-256.9,148.4-258.8,146.4-261.2,146.4z"/>
		<path class="st1" d="M-205.6,152.9c2,0,3.7,1.6,3.7,3.7l0,0c0,2-1.6,3.7-3.7,3.7s-3.7-1.6-3.7-3.7S-207.7,152.9-205.6,152.9z
			 M-205.6,152.2c-2.4,0-4.3,1.9-4.3,4.3s1.9,4.3,4.3,4.3s4.3-1.9,4.3-4.3l0,0C-201.3,154.2-203.3,152.2-205.6,152.2z"/>
		<path class="st2" d="M-146.6,245.7c2,0,3.7,1.6,3.7,3.7l0,0c0,2-1.6,3.7-3.7,3.7s-3.7-1.6-3.7-3.7S-148.6,245.7-146.6,245.7z
			 M-146.6,245c-2.4,0-4.3,1.9-4.3,4.3s1.9,4.3,4.3,4.3s4.3-1.9,4.3-4.3l0,0C-142.3,246.9-144.2,245-146.6,245z"/>
		<path class="st2" d="M-271,100.7c2,0,3.7,1.6,3.7,3.7l0,0c0,2-1.6,3.7-3.7,3.7s-3.7-1.6-3.7-3.7S-273,100.7-271,100.7z M-271,100
			c-2.4,0-4.3,1.9-4.3,4.3c0,2.4,1.9,4.3,4.3,4.3s4.3-1.9,4.3-4.3l0,0C-266.6,102-268.6,100-271,100z"/>
		<path class="st2" d="M-260.2,164.5c2,0,3.7,1.6,3.7,3.7l0,0c0,2-1.6,3.7-3.7,3.7s-3.7-1.6-3.7-3.7S-262.2,164.5-260.2,164.5z
			 M-260.2,163.8c-2.4,0-4.3,1.9-4.3,4.3s1.9,4.3,4.3,4.3s4.3-1.9,4.3-4.3l0,0C-255.8,165.8-257.8,163.8-260.2,163.8z"/>
		<path class="st1" d="M-35.5,25.3c2,0,3.7,1.6,3.7,3.7l0,0c0,2-1.6,3.7-3.7,3.7s-3.7-1.6-3.7-3.7S-37.5,25.3-35.5,25.3z
			 M-35.5,24.7c-2.4,0-4.3,1.9-4.3,4.3s1.9,4.3,4.3,4.3s4.3-1.9,4.3-4.3l0,0C-31.2,26.6-33.1,24.7-35.5,24.7z"/>
		<path class="st2" d="M42,123.9c2,0,3.7,1.6,3.7,3.7l0,0c0,2-1.6,3.7-3.7,3.7s-3.7-1.6-3.7-3.7C38.4,125.5,40,123.9,42,123.9z
			 M42,123.2c-2.4,0-4.3,1.9-4.3,4.3s1.9,4.3,4.3,4.3s4.3-1.9,4.3-4.3l0,0C46.4,125.2,44.4,123.2,42,123.2z"/>
		<path class="st1" d="M-0.4,147.1c2,0,3.7,1.6,3.7,3.7l0,0c0,2-1.6,3.7-3.7,3.7s-3.7-1.6-3.7-3.7S-2.4,147.1-0.4,147.1z
			 M-0.4,146.4c-2.4,0-4.3,1.9-4.3,4.3s1.9,4.3,4.3,4.3s4.3-1.9,4.3-4.3l0,0C4,148.4,2,146.4-0.4,146.4z"/>
		<path class="st1" d="M-152.3,7.9c2,0,3.7,1.6,3.7,3.7l0,0c0,2-1.6,3.7-3.7,3.7s-3.7-1.6-3.7-3.7S-154.3,7.9-152.3,7.9z
			 M-152.3,7.3c-2.4,0-4.3,1.9-4.3,4.3s1.9,4.3,4.3,4.3s4.3-1.9,4.3-4.3l0,0C-147.9,9.2-149.9,7.3-152.3,7.3z"/>
		<path class="st1" d="M54.2-26.9c2,0,3.7,1.6,3.7,3.7l0,0c0,2-1.6,3.7-3.7,3.7s-3.7-1.6-3.7-3.7S52.2-26.9,54.2-26.9z M54.2-27.5
			c-2.4,0-4.3,1.9-4.3,4.3s1.9,4.3,4.3,4.3s4.3-1.9,4.3-4.3l0,0C58.6-25.6,56.6-27.5,54.2-27.5z"/>
		<path class="st1" d="M-96.3,135.5c2,0,3.7,1.6,3.7,3.7l0,0c0,2-1.6,3.7-3.7,3.7s-3.7-1.6-3.7-3.7S-98.4,135.5-96.3,135.5z
			 M-96.3,134.8c-2.4,0-4.3,1.9-4.3,4.3s1.9,4.3,4.3,4.3c2.4,0,4.3-1.9,4.3-4.3l0,0C-92,136.8-94,134.8-96.3,134.8z"/>
		<path class="st2" d="M45.3,100.7c2,0,3.7,1.6,3.7,3.7l0,0c0,2-1.6,3.7-3.7,3.7s-3.7-1.6-3.7-3.7S43.3,100.7,45.3,100.7z M45.3,100
			c-2.4,0-4.3,1.9-4.3,4.3c0,2.4,1.9,4.3,4.3,4.3s4.3-1.9,4.3-4.3l0,0C49.6,102,47.7,100,45.3,100z"/>
		<path class="st2" d="M75.5,100.7c2,0,3.7,1.6,3.7,3.7l0,0c0,2-1.6,3.7-3.7,3.7s-3.7-1.6-3.7-3.7S73.5,100.7,75.5,100.7z M75.5,100
			c-2.4,0-4.3,1.9-4.3,4.3c0,2.4,1.9,4.3,4.3,4.3c2.4,0,4.3-1.9,4.3-4.3l0,0C79.8,102,77.9,100,75.5,100z"/>
		<path class="st1" d="M-225.9,147.1c2,0,3.7,1.6,3.7,3.7l0,0c0,2-1.6,3.7-3.7,3.7s-3.7-1.6-3.7-3.7S-227.9,147.1-225.9,147.1z
			 M-225.9,146.4c-2.4,0-4.3,1.9-4.3,4.3s1.9,4.3,4.3,4.3s4.3-1.9,4.3-4.3l0,0C-221.6,148.4-223.5,146.4-225.9,146.4z"/>
		<path class="st1" d="M-132.2,106.5c2,0,3.7,1.6,3.7,3.7l0,0c0,2-1.6,3.7-3.7,3.7s-3.7-1.6-3.7-3.7S-134.3,106.5-132.2,106.5z
			 M-132.2,105.8c-2.4,0-4.3,1.9-4.3,4.3c0,2.4,1.9,4.3,4.3,4.3s4.3-1.9,4.3-4.3l0,0C-127.9,107.8-129.8,105.8-132.2,105.8z"/>
		<path class="st2" d="M-270.9,118.1c2,0,3.7,1.6,3.7,3.7l0,0c0,2-1.6,3.7-3.7,3.7s-3.7-1.6-3.7-3.7S-272.9,118.1-270.9,118.1z
			 M-270.9,117.4c-2.4,0-4.3,1.9-4.3,4.3c0,2.4,1.9,4.3,4.3,4.3s4.3-1.9,4.3-4.3l0,0C-266.6,119.4-268.5,117.4-270.9,117.4z"/>
		<path class="st1" d="M-177.9,181.9c2,0,3.7,1.6,3.7,3.7l0,0c0,2-1.6,3.7-3.7,3.7s-3.7-1.6-3.7-3.7S-180,181.9-177.9,181.9z
			 M-177.9,181.2c-2.4,0-4.3,1.9-4.3,4.3s1.9,4.3,4.3,4.3s4.3-1.9,4.3-4.3l0,0C-173.6,183.2-175.5,181.2-177.9,181.2z"/>
		<path class="st2" d="M-298.7,176.1c2,0,3.7,1.6,3.7,3.7l0,0c0,2-1.6,3.7-3.7,3.7s-3.7-1.6-3.7-3.7S-300.8,176.1-298.7,176.1z
			 M-298.7,175.4c-2.4,0-4.3,1.9-4.3,4.3s1.9,4.3,4.3,4.3s4.3-1.9,4.3-4.3l0,0C-294.4,177.4-296.3,175.4-298.7,175.4z"/>
	</g>
	<g>
		<g>
			<g>
				<line class="st3" x1="73" y1="230.6" x2="79" y2="229.9"/>
				<line class="st4" x1="91" y1="228.6" x2="495" y2="183.7"/>
				<line class="st3" x1="501" y1="183" x2="507" y2="182.4"/>
			</g>
		</g>
	</g>
</g>
</svg>
