<?xml version="1.0" encoding="utf-8"?>
<!-- Generator: Adobe Illustrator 25.2.1, SVG Export Plug-In . SVG Version: 6.00 Build 0)  -->
<svg version="1.1" id="Layer_1" xmlns="http://www.w3.org/2000/svg" xmlns:xlink="http://www.w3.org/1999/xlink" x="0px" y="0px"
	 viewBox="0 0 560 420" style="enable-background:new 0 0 560 420;" xml:space="preserve">
<style type="text/css">
	.st0{fill:none;stroke:#262626;stroke-width:0.6667;stroke-linejoin:round;stroke-miterlimit:10;}
	.st1{fill:#0072BD;}
	.st2{fill:none;stroke:#000000;stroke-width:2.6667;stroke-miterlimit:10;}
	.st3{fill:#D95319;}
	.st4{fill:none;stroke:#000000;stroke-width:2.6667;stroke-linejoin:round;stroke-miterlimit:10;}
	.st5{fill:none;stroke:#262626;stroke-width:1.3333;stroke-linecap:square;stroke-linejoin:round;stroke-miterlimit:10;}
	.st6{fill:#FFFFFF;}
	.st7{fill:none;stroke:#262626;stroke-width:1.3333;stroke-miterlimit:10;}
</style>
<g>
	<g>
		<line class="st0" x1="73" y1="374" x2="507" y2="374"/>
	</g>
	<g>
		<path class="st1" d="M127.2,374V81.1h-31V374H127.2z M235.8,374V148.2h-31V374H235.8z M344.2,374V194.1h-31V374H344.2z M452.8,374
			V270h-31v104H452.8z"/>
	</g>
	<g>
		<path class="st2" d="M96.2,374V81.1h31V374H96.2z"/>
		<path class="st2" d="M204.8,374V148.2h31V374H204.8z"/>
		<path class="st2" d="M313.2,374V194.1h31V374H313.2z"/>
		<path class="st2" d="M421.8,374V270h31v104H421.8z"/>
	</g>
	<g>
		<path class="st3" d="M158.2,374V78h-31v296H158.2z M266.8,374V130.2h-31V374H266.8z M375.2,374V218.7h-31V374H375.2z M483.8,374
			V249.8h-31V374H483.8z"/>
	</g>
	<g>
		<path class="st2" d="M127.2,374V78h31v296H127.2z"/>
		<path class="st2" d="M235.8,374V130.2h31V374H235.8z"/>
		<path class="st2" d="M344.2,374V218.7h31V374H344.2z"/>
		<path class="st2" d="M452.8,374V249.8h31V374H452.8z"/>
		<line class="st4" x1="111.8" y1="81.1" x2="111.8" y2="94.7"/>
		<line class="st4" x1="220.2" y1="148.2" x2="220.2" y2="163.4"/>
		<line class="st4" x1="328.8" y1="194.1" x2="328.8" y2="204.4"/>
		<line class="st4" x1="437.2" y1="270" x2="437.2" y2="278.3"/>
		<line class="st4" x1="111.8" y1="81.1" x2="111.8" y2="67.6"/>
		<line class="st4" x1="220.2" y1="148.2" x2="220.2" y2="133"/>
		<line class="st4" x1="328.8" y1="194.1" x2="328.8" y2="183.8"/>
		<line class="st4" x1="437.2" y1="270" x2="437.2" y2="261.7"/>
	</g>
	<g transform="translate(111.75,94.6954)">
		<path d="M-4,0h8"/>
	</g>
	<g transform="translate(111.75,94.6954)">
		<path class="st2" d="M-4,0h8"/>
	</g>
	<g transform="translate(220.25,163.3513)">
		<path d="M-4,0h8"/>
	</g>
	<g transform="translate(220.25,163.3513)">
		<path class="st2" d="M-4,0h8"/>
	</g>
	<g transform="translate(328.75,204.4275)">
		<path d="M-4,0h8"/>
	</g>
	<g transform="translate(328.75,204.4275)">
		<path class="st2" d="M-4,0h8"/>
	</g>
	<g transform="translate(437.25,278.2859)">
		<path d="M-4,0h8"/>
	</g>
	<g transform="translate(437.25,278.2859)">
		<path class="st2" d="M-4,0h8"/>
	</g>
	<g transform="translate(111.75,67.5712)">
		<path d="M-4,0h8"/>
	</g>
	<g transform="translate(111.75,67.5712)">
		<path class="st2" d="M-4,0h8"/>
	</g>
	<g transform="translate(220.25,133.0394)">
		<path d="M-4,0h8"/>
	</g>
	<g transform="translate(220.25,133.0394)">
		<path class="st2" d="M-4,0h8"/>
	</g>
	<g transform="translate(328.75,183.828)">
		<path d="M-4,0h8"/>
	</g>
	<g transform="translate(328.75,183.828)">
		<path class="st2" d="M-4,0h8"/>
	</g>
	<g transform="translate(437.25,261.7345)">
		<path d="M-4,0h8"/>
	</g>
	<g transform="translate(437.25,261.7345)">
		<path class="st2" d="M-4,0h8"/>
		<line class="st4" x1="-294.5" y1="-183.8" x2="-294.5" y2="-168"/>
		<line class="st4" x1="-186" y1="-131.5" x2="-186" y2="-117.4"/>
		<line class="st4" x1="-77.5" y1="-43.1" x2="-77.5" y2="-32.3"/>
		<line class="st4" x1="31" y1="-11.9" x2="31" y2="-4.6"/>
		<line class="st4" x1="-294.5" y1="-183.8" x2="-294.5" y2="-199.6"/>
		<line class="st4" x1="-186" y1="-131.5" x2="-186" y2="-145.6"/>
		<line class="st4" x1="-77.5" y1="-43.1" x2="-77.5" y2="-53.8"/>
		<line class="st4" x1="31" y1="-11.9" x2="31" y2="-19.3"/>
	</g>
	<g transform="translate(142.75,93.7377)">
		<path d="M-4,0h8"/>
	</g>
	<g transform="translate(142.75,93.7377)">
		<path class="st2" d="M-4,0h8"/>
	</g>
	<g transform="translate(251.25,144.2915)">
		<path d="M-4,0h8"/>
	</g>
	<g transform="translate(251.25,144.2915)">
		<path class="st2" d="M-4,0h8"/>
	</g>
	<g transform="translate(359.75,229.3955)">
		<path d="M-4,0h8"/>
	</g>
	<g transform="translate(359.75,229.3955)">
		<path class="st2" d="M-4,0h8"/>
	</g>
	<g transform="translate(468.25,257.1613)">
		<path d="M-4,0h8"/>
	</g>
	<g transform="translate(468.25,257.1613)">
		<path class="st2" d="M-4,0h8"/>
	</g>
	<g transform="translate(142.75,62.1818)">
		<path d="M-4,0h8"/>
	</g>
	<g transform="translate(142.75,62.1818)">
		<path class="st2" d="M-4,0h8"/>
	</g>
	<g transform="translate(251.25,116.1051)">
		<path d="M-4,0h8"/>
	</g>
	<g transform="translate(251.25,116.1051)">
		<path class="st2" d="M-4,0h8"/>
	</g>
	<g transform="translate(359.75,207.9496)">
		<path d="M-4,0h8"/>
	</g>
	<g transform="translate(359.75,207.9496)">
		<path class="st2" d="M-4,0h8"/>
	</g>
	<g transform="translate(468.25,242.4671)">
		<path d="M-4,0h8"/>
	</g>
	<g transform="translate(468.25,242.4671)">
		<path class="st2" d="M-4,0h8"/>
	</g>
	<g>
		<line class="st5" x1="73" y1="374" x2="507" y2="374"/>
		<line class="st5" x1="73" y1="31" x2="507" y2="31"/>
		<line class="st5" x1="127.2" y1="374" x2="127.2" y2="369.7"/>
		<line class="st5" x1="235.8" y1="374" x2="235.8" y2="369.7"/>
		<line class="st5" x1="344.2" y1="374" x2="344.2" y2="369.7"/>
		<line class="st5" x1="452.8" y1="374" x2="452.8" y2="369.7"/>
	</g>
	<g>
		<line class="st5" x1="73" y1="374" x2="73" y2="31"/>
		<line class="st5" x1="507" y1="374" x2="507" y2="31"/>
		<line class="st5" x1="73" y1="374" x2="77.3" y2="374"/>
		<line class="st5" x1="507" y1="374" x2="502.7" y2="374"/>
	</g>
	<g>
		<path class="st6" d="M496,117V42H328v75H496z"/>
	</g>
	<g>
		<path class="st1" d="M399.1,74.9V50.2h-64.6v24.7H399.1z"/>
	</g>
	<g>
		<path class="st2" d="M334.5,74.9V50.2h64.6v24.7H334.5z"/>
	</g>
	<g>
		<path class="st3" d="M399.1,108.8V84.1h-64.6v24.7H399.1z"/>
	</g>
	<g>
		<path class="st2" d="M334.5,108.8V84.1h64.6v24.7H334.5z"/>
		<path class="st7" d="M328,117V42h168v75H328z"/>
	</g>
</g>
</svg>
